<svg width="253" height="63" viewBox="0 0 253 63" fill="none" xmlns="http://www.w3.org/2000/svg">
<path opacity="0.1" fill-rule="evenodd" clip-rule="evenodd" d="M2 42.8672C2 42.8672 11.885 41.4188 23.1236 44.8983C44.4988 51.516 45.7182 39.3974 53.6443 33.554C60.8959 28.208 66.9015 31.4698 74.9756 38.0076C80.9306 42.8295 89.6092 50.9235 98.5969 49.6205C106.813 48.4294 112.637 38.9362 124.025 36.5219C133.05 34.6084 140.385 39.8652 150.778 38.0076C164.877 35.4875 171.174 20.6518 181.251 20.6518C193.687 20.6518 202.443 8.10425 213.757 8.10425C225.004 8.10425 226.531 15.4825 238.834 20.6518C248.24 24.6038 252.765 20.6518 252.765 20.6518V62.9999H2V42.8672Z" fill="url(#paint0_linear_98_2108)"/>
<path d="M2 36.2897C2 36.2897 11.885 34.8623 23.1236 38.2914C44.4988 44.8133 45.7182 32.8701 53.6443 27.1113C60.8959 21.8426 66.9015 25.0572 74.9756 31.5004C80.9306 36.2525 89.6092 44.2294 98.5969 42.9452C106.813 41.7713 112.637 32.4155 124.025 30.0362C133.05 28.1504 140.385 33.3311 150.778 31.5004C164.877 29.0168 171.174 14.3958 181.251 14.3958C193.687 14.3958 202.443 2 213.757 2C225.004 2 225.602 9.30135 237.905 14.3958C247.311 18.2906 252.765 14.3958 252.765 14.3958" stroke="#27366D" stroke-width="3.6528" stroke-linecap="round" stroke-linejoin="round"/>
<defs>
<linearGradient id="paint0_linear_98_2108" x1="47.3198" y1="35.9586" x2="47.3198" y2="62.9999" gradientUnits="userSpaceOnUse">
<stop stop-color="#27366D"/>
<stop offset="1" stop-color="white" stop-opacity="0.01"/>
</linearGradient>
</defs>
</svg>
